<?xml version="1.0" encoding="UTF-8"?>
<svg width="134px" height="50px" viewBox="0 0 134 50" version="1.1" xmlns="http://www.w3.org/2000/svg" xmlns:xlink="http://www.w3.org/1999/xlink">
    <!-- Generator: Sketch 55.2 (78181) - https://sketchapp.com -->
    <title>jhylee</title>
    <desc>Created with Sketch.</desc>
    <g id="Page-1" stroke="none" stroke-width="1" fill="none" fill-rule="evenodd">
        <g id="Artboard" transform="translate(-1.000000, -43.000000)" fill="#000000" fill-rule="nonzero">
            <path d="M10.0134529,85.0180723 C10.0134529,86.2228976 9.92165015,87.3105708 9.73804185,88.2811245 C9.55443356,89.2516782 9.2122596,90.0883499 8.71150972,90.7911647 C8.21075983,91.4939794 7.53475762,92.037816 6.68348281,92.4226908 C5.832208,92.8075655 4.73892048,93 3.40358744,93 C2.60238762,93 1.80119982,92.8493991 1,92.5481928 L1.45067265,89.8875502 C2.15172249,90.1552892 2.78599617,90.2891566 3.35351271,90.2891566 C4.15471253,90.2891566 4.79733191,90.1469224 5.28139013,89.8624498 C5.76544836,89.5779772 6.13265944,89.2098416 6.38303438,88.7580321 C6.63340932,88.3062226 6.80032345,87.7791195 6.88378176,87.1767068 C6.96724008,86.5742942 7.00896861,85.9384237 7.00896861,85.2690763 L7.00896861,57.7590361 L10.0134529,57.7590361 L10.0134529,85.0180723 Z M6.25784753,48.5722892 C6.25784753,47.9364091 6.4748359,47.4009393 6.90881913,46.9658635 C7.34280237,46.5307877 7.87692757,46.313253 8.51121076,46.313253 C9.14549395,46.313253 9.67961916,46.5307877 10.1136024,46.9658635 C10.5475856,47.4009393 10.764574,47.9364091 10.764574,48.5722892 C10.764574,49.2081692 10.5475856,49.7436391 10.1136024,50.1787149 C9.67961916,50.6137907 9.14549395,50.8313253 8.51121076,50.8313253 C7.87692757,50.8313253 7.34280237,50.6137907 6.90881913,50.1787149 C6.4748359,49.7436391 6.25784753,49.2081692 6.25784753,48.5722892 Z M18.5261584,43 L21.5306428,43 L21.5306428,61.8253012 L21.6307922,61.8253012 C22.2316921,60.5535412 23.2331768,59.4575013 24.6352765,58.5371486 C26.0373692,57.6167959 27.6731346,57.1566265 29.5426009,57.1566265 C31.3453005,57.1566265 32.8141448,57.4410949 33.9491779,58.0100402 C35.084211,58.5789854 35.9772015,59.3236232 36.6281764,60.2439759 C37.2791512,61.1643286 37.7298194,62.2269016 37.9801943,63.4317269 C38.2305693,64.6365522 38.3557549,65.8748263 38.3557549,67.1465863 L38.3557549,80.9518072 L35.3512706,80.9518072 L35.3512706,67.2971888 C35.3512706,66.3601024 35.2678135,65.4481303 35.1008969,64.561245 C34.9339802,63.6743597 34.6418805,62.8795216 34.2245889,62.1767068 C33.8072974,61.4738921 33.2230979,60.913322 32.4719731,60.4949799 C31.7208483,60.0766378 30.7444006,59.8674699 29.5426009,59.8674699 C28.4409511,59.8674699 27.3977379,60.0599044 26.4129297,60.4447791 C25.4281216,60.8296539 24.5768596,61.415324 23.8591181,62.2018072 C23.1413766,62.9882904 22.5738686,63.975563 22.156577,65.1636546 C21.7392854,66.3517462 21.5306428,67.748988 21.5306428,69.3554217 L21.5306428,80.9518072 L18.5261584,80.9518072 L18.5261584,43 Z M42.9125561,57.1566265 L48.1203288,57.1566265 L55.180867,75.7309237 L55.2810164,75.7309237 L61.9910314,57.1566265 L66.848281,57.1566265 L55.5814649,86.0722892 C55.180865,87.1097776 54.7635796,88.0552166 54.3295964,88.9086345 C53.8956132,89.7620525 53.3781794,90.4899568 52.7772795,91.0923695 C52.1763797,91.6947821 51.4503032,92.1633183 50.5990284,92.497992 C49.7477536,92.8326657 48.7045403,93 47.4693572,93 C46.8016907,93 46.1256885,92.9581664 45.4413303,92.874498 C44.7569722,92.7908296 44.0976614,92.6151285 43.4633782,92.3473896 L44.0142003,88.2309237 C44.9155456,88.5990648 45.8168864,88.7831325 46.7182362,88.7831325 C47.4192825,88.7831325 48.0118312,88.6910986 48.4958894,88.5070281 C48.9799476,88.3229576 49.3972329,88.0552226 49.7477578,87.7038153 C50.0982828,87.3524079 50.3903825,86.9424388 50.6240658,86.4738956 C50.8577491,86.0053524 51.0914288,85.4698825 51.3251121,84.8674699 L52.7772795,81.1024096 L42.9125561,57.1566265 Z M71.1547085,43 L75.661435,43 L75.661435,80.9518072 L71.1547085,80.9518072 L71.1547085,43 Z M105.105381,76.7349398 C103.903581,78.2744388 102.384663,79.4625126 100.54858,80.2991968 C98.712497,81.135881 96.809676,81.5542169 94.8400598,81.5542169 C92.9705935,81.5542169 91.2096495,81.2530151 89.5571749,80.6506024 C87.9047003,80.0481928 86.4692388,79.1864179 85.2507474,78.065261 C84.032256,76.9441042 83.0724998,75.5970628 82.3714499,74.0240964 C81.6704001,72.45113 81.3198804,70.6941195 81.3198804,68.753012 C81.3198804,66.8119046 81.6704001,65.0548941 82.3714499,63.4819277 C83.0724998,61.9089613 84.032256,60.5619199 85.2507474,59.4407631 C86.4692388,58.3196062 87.9047003,57.4578313 89.5571749,56.8554217 C91.2096495,56.253009 92.9705935,55.9518072 94.8400598,55.9518072 C96.5759927,55.9518072 98.1533312,56.253009 99.5721226,56.8554217 C100.990914,57.4578313 102.192696,58.3196062 103.177504,59.4407631 C104.162312,60.5619199 104.921771,61.9089613 105.455904,63.4819277 C105.990038,65.0548941 106.2571,66.8119046 106.2571,68.753012 L106.2571,71.1124498 L88.8310912,71.1124498 C89.1315411,72.5515467 89.7825062,73.6977869 90.784006,74.5512048 C91.7855058,75.4046227 93.0206703,75.8313253 94.4895366,75.8313253 C95.7247197,75.8313253 96.767933,75.5552236 97.6192078,75.003012 C98.4704826,74.4508005 99.2132504,73.7396295 99.8475336,72.8694779 L105.105381,76.7349398 Z M98.7458894,65.9919679 C98.7792727,64.7202078 98.3619874,63.6325346 97.4940209,62.7289157 C96.6260545,61.8252967 95.5077298,61.373494 94.1390135,61.373494 C93.3044303,61.373494 92.5700082,61.5073614 91.935725,61.7751004 C91.3014418,62.0428394 90.7589709,62.3858747 90.308296,62.8042169 C89.8576211,63.222559 89.5071014,63.7078286 89.2567265,64.2600402 C89.0063515,64.8122518 88.8644745,65.3895582 88.8310912,65.9919679 L98.7458894,65.9919679 Z M133.848281,76.7349398 C132.646481,78.2744388 131.127563,79.4625126 129.29148,80.2991968 C127.455397,81.135881 125.552576,81.5542169 123.58296,81.5542169 C121.713493,81.5542169 119.952549,81.2530151 118.300075,80.6506024 C116.6476,80.0481928 115.212139,79.1864179 113.993647,78.065261 C112.775156,76.9441042 111.8154,75.5970628 111.11435,74.0240964 C110.4133,72.45113 110.06278,70.6941195 110.06278,68.753012 C110.06278,66.8119046 110.4133,65.0548941 111.11435,63.4819277 C111.8154,61.9089613 112.775156,60.5619199 113.993647,59.4407631 C115.212139,58.3196062 116.6476,57.4578313 118.300075,56.8554217 C119.952549,56.253009 121.713493,55.9518072 123.58296,55.9518072 C125.318893,55.9518072 126.896231,56.253009 128.315022,56.8554217 C129.733814,57.4578313 130.935595,58.3196062 131.920404,59.4407631 C132.905212,60.5619199 133.664671,61.9089613 134.198804,63.4819277 C134.732937,65.0548941 135,66.8119046 135,68.753012 L135,71.1124498 L117.573991,71.1124498 C117.874441,72.5515467 118.525406,73.6977869 119.526906,74.5512048 C120.528406,75.4046227 121.76357,75.8313253 123.232436,75.8313253 C124.46762,75.8313253 125.510833,75.5552236 126.362108,75.003012 C127.213382,74.4508005 127.95615,73.7396295 128.590433,72.8694779 L133.848281,76.7349398 Z M127.488789,65.9919679 C127.522173,64.7202078 127.104887,63.6325346 126.236921,62.7289157 C125.368954,61.8252967 124.25063,61.373494 122.881913,61.373494 C122.04733,61.373494 121.312908,61.5073614 120.678625,61.7751004 C120.044342,62.0428394 119.501871,62.3858747 119.051196,62.8042169 C118.600521,63.222559 118.250001,63.7078286 117.999626,64.2600402 C117.749251,64.8122518 117.607374,65.3895582 117.573991,65.9919679 L127.488789,65.9919679 Z" id="jhylee"></path>
        </g>
    </g>
</svg>