<?xml version="1.0" standalone="no"?>
<!DOCTYPE svg PUBLIC "-//W3C//DTD SVG 20010904//EN"
 "http://www.w3.org/TR/2001/REC-SVG-20010904/DTD/svg10.dtd">
<svg version="1.0" xmlns="http://www.w3.org/2000/svg"
 width="486.000000pt" height="486.000000pt" viewBox="0 0 486.000000 486.000000"
 preserveAspectRatio="xMidYMid meet">
<metadata>
Created by potrace 1.11, written by Peter Selinger 2001-2013
</metadata>
<g transform="translate(0.000000,486.000000) scale(0.100000,-0.100000)"
fill="#000000" stroke="none">
<path d="M1532 2763 l3 -1138 86 -3 87 -3 5 413 c4 338 8 425 21 477 38 147
127 271 235 326 116 58 277 69 382 24 55 -24 123 -92 146 -147 43 -100 45
-130 50 -620 l5 -473 86 3 87 3 0 480 c-1 413 -3 490 -18 554 -58 257 -231
391 -507 391 -184 0 -342 -79 -442 -221 l-43 -61 -3 566 -2 566 -90 0 -90 0 2
-1137z"/>
<path d="M860 3678 c-43 -29 -60 -61 -60 -113 0 -106 115 -170 201 -112 75 50
86 137 25 204 -27 29 -41 36 -82 40 -40 4 -55 0 -84 -19z"/>
<path d="M3039 2958 c21 -51 154 -374 296 -717 253 -612 257 -625 245 -660
-46 -129 -114 -288 -139 -325 -58 -84 -157 -119 -273 -96 -111 21 -101 30
-118 -102 l-16 -118 46 -15 c64 -23 225 -31 302 -16 138 28 243 113 313 255
20 40 196 480 390 977 l353 904 -136 3 c-75 1 -141 1 -147 -1 -6 -3 -100 -253
-210 -556 -109 -303 -202 -551 -205 -551 -3 0 -99 250 -215 555 l-210 555
-157 0 -157 0 38 -92z"/>
<path d="M838 2118 c-3 -835 -4 -896 -21 -933 -47 -104 -119 -133 -287 -113
-23 3 -25 -1 -37 -62 -7 -36 -10 -70 -8 -76 5 -15 83 -34 143 -34 218 0 348
106 381 310 7 42 11 374 11 933 l0 867 -90 0 -89 0 -3 -892z"/>
</g>
</svg>
